<svg width="53" height="55" viewBox="0 0 53 55" fill="none" xmlns="http://www.w3.org/2000/svg">
<path d="M18.9573 9.15922C20.5169 9.15922 21.7857 7.89035 21.7857 6.3308C21.7857 4.77125 20.5169 3.50238 18.9573 3.50238C17.3978 3.50238 16.1289 4.77125 16.1289 6.3308C16.1289 7.89035 17.3978 9.15922 18.9573 9.15922ZM18.9573 5.11382C19.6284 5.11382 20.1744 5.65984 20.1744 6.33091C20.1744 7.00197 19.6284 7.548 18.9573 7.548C18.2863 7.548 17.7402 7.00197 17.7402 6.33091C17.7402 5.65984 18.2863 5.11382 18.9573 5.11382Z" fill="white"/>
<path d="M39.216 36.8248C40.7757 36.8248 42.0444 35.5559 42.0444 33.9963C42.0444 32.4368 40.7756 31.1679 39.216 31.1679C37.6565 31.1679 36.3877 32.4368 36.3877 33.9963C36.3877 35.5559 37.6566 36.8248 39.216 36.8248ZM39.216 32.7794C39.8871 32.7794 40.4331 33.3253 40.4331 33.9965C40.4331 34.6675 39.8871 35.2135 39.216 35.2135C38.5449 35.2135 37.999 34.6675 37.999 33.9965C37.999 33.3253 38.5449 32.7794 39.216 32.7794Z" fill="white"/>
<path d="M46.6925 11.676C44.8453 9.4777 42.666 7.60458 40.2149 6.10863C39.8352 5.87681 39.3394 5.9968 39.1075 6.37664C38.8757 6.75649 38.9957 7.25224 39.3755 7.48406C41.5193 8.79235 43.4418 10.408 45.097 12.2914C44.5324 13.086 44.3155 14.3969 42.998 14.5025C41.878 14.5922 40.8882 15.2355 40.3544 16.2308L39.4031 18.0037C38.7467 19.227 37.4557 18.8284 36.748 18.8284C35.23 18.8284 33.7706 19.47 32.7433 20.5891C31.6651 21.7662 31.4337 22.991 31.2296 24.0718C31.0727 24.9034 30.936 25.6231 30.4609 26.3196C30.3785 26.4404 30.4647 26.3188 28.192 29.3532C27.4237 30.3798 27.6298 31.8472 28.6857 32.6137L30.5657 33.9769C31.1347 34.3883 31.8426 34.5139 32.4979 34.3442C32.6301 34.3113 32.7589 34.2789 32.8857 34.2468C32.8875 34.2464 32.8892 34.246 32.8908 34.2455C32.8924 34.3365 32.8958 34.4272 32.9013 34.5177C33.0889 37.6619 34.9237 40.6317 37.0438 42.9638C38.221 44.2588 40.2372 44.2305 41.3864 42.9668C41.3873 42.9657 41.3883 42.9646 41.3893 42.9636C42.8895 41.3138 44.2367 39.3674 44.9699 37.2434L48.5139 39.9691C44.5769 47.605 36.9682 52.66 28.4149 53.3152C28.3374 52.921 27.1339 51.3221 28.5182 50.3343C29.3619 49.736 29.8656 48.7599 29.8656 47.7235C29.8656 46.8768 29.9209 46.1943 29.477 45.3773C29.3567 45.1558 29.2023 44.9334 28.9989 44.7165L27.7471 43.3815C27.2409 42.8419 27.1763 42.0065 27.5932 41.3954L27.9294 40.9027C29.1268 39.1457 28.3156 36.7218 26.282 36.0534L22.6479 34.8606C22.5021 34.8126 22.3793 34.7132 22.3021 34.5801L19.81 30.2933C18.9692 28.8435 16.8675 28.7933 15.9738 30.2423L15.3777 31.2086C15.2624 31.395 15.064 31.5063 14.8467 31.5063C14.4306 31.5063 14.1388 31.1141 14.2403 30.7238L15.5313 25.7817C15.5756 25.6106 15.6918 25.4658 15.8497 25.3844L18.4785 24.0312C19.2255 23.6483 19.6693 22.899 19.6929 22.1136C19.7359 20.7199 18.5457 19.1227 16.7662 18.8106C15.4236 18.5317 14.6614 18.5907 13.7547 18.0396L9.9386 15.7236C9.16227 15.2519 8.59884 14.5141 8.34683 13.6478L7.93948 12.2491C9.3683 10.6314 10.9943 9.21301 12.7884 8.01837C12.8003 8.07917 12.8994 8.6441 13.1426 9.388C14.004 12.0236 16.113 14.7211 17.0042 15.5151C18.2246 16.6019 20.063 16.4723 21.1277 15.3014C23.3726 12.8336 25.2867 9.67063 25.2885 6.3341C25.2885 6.33303 25.2885 6.33185 25.2885 6.33077C25.2885 5.50642 25.125 4.6811 24.8183 3.93204C25.38 3.89412 25.9426 3.875 26.5009 3.875C29.9711 3.875 33.3278 4.57937 36.4779 5.96833C36.8852 6.14794 37.3607 5.96339 37.5401 5.55626C37.7196 5.14913 37.5352 4.67358 37.128 4.49408C33.7719 3.01412 30.1963 2.26368 26.5009 2.26368C25.64 2.26368 24.7701 2.3089 23.9074 2.39333C22.7506 0.942709 20.9729 0.00727887 18.9812 -2.58171e-05C15.4966 -0.0158168 12.7734 2.8155 12.6368 6.20176C10.3007 7.64798 8.21416 9.43827 6.43031 11.5297C6.4258 11.535 6.42183 11.5408 6.41742 11.5462C2.36461 16.3051 0.132812 22.3719 0.132812 28.6319C0.132812 35.404 2.69644 41.841 7.35156 46.7574C7.6575 47.0804 8.16743 47.0944 8.49056 46.7885C8.81368 46.4826 8.82754 45.9727 8.5216 45.6495C4.15114 41.0337 1.74425 34.9901 1.74425 28.632C1.74425 23.2586 3.49544 18.0369 6.70327 13.7668C6.84238 14.1271 7.13564 15.9052 9.10243 17.1011L12.9185 19.4171C14.4452 20.3445 16.1925 20.154 17.0365 20.5794C17.5576 20.8424 17.937 21.3251 18.067 21.9096C18.1279 22.1795 17.9934 22.4693 17.7424 22.598L15.1119 23.9519C14.5465 24.2434 14.1308 24.763 13.9721 25.3758L12.6812 30.3173C12.3137 31.7327 13.3793 33.1174 14.8469 33.1174C15.6351 33.1174 16.3421 32.7132 16.7489 32.0551C17.5345 30.7817 17.2817 31.1914 17.3454 31.0882C17.5974 30.6798 18.1832 30.6994 18.4169 31.1023C21.0486 35.6231 20.9141 35.4128 21.0198 35.5616C21.2953 35.9499 21.6884 36.2411 22.1452 36.3913L25.7796 37.5842C26.7851 37.9141 27.1965 39.1167 26.5984 39.9946C26.2973 40.4408 26.2249 40.5292 26.114 40.7258C25.4311 41.9373 25.5996 43.4466 26.572 44.4836L27.8238 45.8185C28.423 46.4577 28.2047 47.1473 28.2541 47.7576C28.2429 48.2819 27.9679 48.7491 27.5844 49.0212C25.2355 50.6974 26.7001 53.3608 26.7023 53.3877C26.6353 53.3882 26.5683 53.3884 26.5011 53.3884C20.789 53.3884 15.2154 51.3961 10.8072 47.7784C10.4631 47.4961 9.95558 47.5462 9.67338 47.8901C9.39107 48.2341 9.44113 48.7418 9.7851 49.0241C14.4803 52.8777 20.4167 55 26.5007 55C27.2742 55 27.7802 54.9674 27.9336 54.9611C27.9443 54.9574 43.1413 54.8206 50.256 40.0858C50.2561 40.0857 50.2561 40.0856 50.2562 40.0854C51.9891 36.4988 52.8678 32.6453 52.8678 28.6318C52.8677 22.4352 50.6747 16.4135 46.6925 11.676C46.6925 11.676 46.6926 11.6761 46.6925 11.676ZM18.9578 1.6113H18.9751C21.5741 1.62076 23.6771 3.74406 23.6771 6.33077C23.6771 9.61273 21.3328 12.6806 19.9354 14.2173C19.4066 14.7987 18.4999 14.7893 17.9772 14.2145C16.1454 12.1992 14.3649 9.40723 14.2482 6.67667L14.2468 6.62758C14.2468 6.62629 14.2464 6.62511 14.2464 6.62382C14.1587 3.9343 16.2495 1.6113 18.9578 1.6113ZM39.2101 29.2769C39.2123 29.2769 39.2145 29.2768 39.2166 29.2768H39.2337C41.8264 29.2863 43.9357 31.4034 43.9357 33.9963C43.9357 36.8611 42.134 39.7486 40.194 41.8828C39.6663 42.463 38.7607 42.4573 38.2358 41.88C36.9243 40.4372 34.6961 37.5498 34.5094 34.4218C34.3448 31.6554 36.4835 29.2808 39.2101 29.2769ZM49.2204 38.48L45.4103 35.5496C45.4898 35.0988 45.5469 34.521 45.5469 33.9964C45.5469 30.5183 42.7174 27.6784 39.2395 27.6656C39.2394 27.6656 39.2392 27.6656 39.239 27.6656C39.2314 27.6656 39.224 27.6656 39.2163 27.6656C36.2878 27.6656 33.7915 29.6877 33.0861 32.5318C32.1112 32.7857 31.8448 32.9138 31.5105 32.672L29.6312 31.3094C29.3136 31.0791 29.2463 30.6333 29.4813 30.3193L31.6491 27.4266C32.378 26.4582 32.5994 25.4998 32.8126 24.3711C33.0006 23.3758 33.1629 22.5163 33.9306 21.6782C34.6529 20.8913 35.6797 20.44 36.7477 20.44C37.4462 20.44 39.655 20.9419 40.8227 18.7657L41.7739 16.9928C42.0486 16.481 42.5606 16.1542 43.1264 16.109C45.2621 15.9376 45.8941 14.0689 46.0453 13.8919L46.1927 13.6299C49.4658 17.9245 51.2562 23.2069 51.2562 28.6321C51.2564 32.0653 50.572 35.3732 49.2204 38.48Z" fill="white"/>
</svg>
