<svg width="55" height="55" viewBox="0 0 55 55" fill="none" xmlns="http://www.w3.org/2000/svg">
<g clip-path="url(#clip0_53_586)">
<path d="M27.4041 6.98887C28.0016 6.98887 28.486 6.5045 28.486 5.90702V1.08185C28.486 0.484365 28.0016 0 27.4041 0C26.8066 0 26.3223 0.484365 26.3223 1.08185V5.90702C26.3224 6.5045 26.8067 6.98887 27.4041 6.98887Z" fill="white"/>
<path d="M53.8484 37.1664L51.9372 35.2606C51.2573 34.5816 50.3512 34.2075 49.3857 34.2075C48.7684 34.2075 48.1757 34.3611 47.6505 34.6489L44.0491 31.0518L44.2245 30.8766C45.6856 29.4127 45.685 27.0338 44.2244 25.5748C43.7025 25.0519 43.0512 24.7032 42.3412 24.5564C42.439 24.219 42.4904 23.8656 42.4904 23.5039C42.4904 22.499 42.1001 21.5567 41.3934 20.853C40.8714 20.33 40.2202 19.9813 39.5102 19.8346C39.608 19.4972 39.6594 19.1439 39.6594 18.7821C39.6594 17.777 39.2691 16.8348 38.5613 16.13C38.0267 15.5962 37.3696 15.2582 36.6797 15.1144C37.0488 13.8417 36.7334 12.4099 35.7322 11.407C34.8988 10.5772 33.768 10.2206 32.6782 10.3361L25.5416 8.98531C24.4532 8.77884 23.094 8.64231 22.236 9.42488C22.1819 9.47429 22.1267 9.53112 22.0723 9.59439C20.742 9.10949 19.1904 9.39824 18.1251 10.4624C17.4184 11.1682 17.0291 12.1101 17.0291 13.1145C17.0291 13.4763 17.0803 13.8296 17.178 14.1671C16.4688 14.3138 15.8183 14.662 15.2981 15.1832C14.59 15.8885 14.1995 16.8293 14.1987 17.8325C14.1984 18.1951 14.2499 18.5496 14.348 18.888C13.6385 19.0343 12.9876 19.3819 12.4658 19.9031C11.7577 20.6105 11.3677 21.5529 11.3677 22.5568C11.3677 23.3257 11.5973 24.0582 12.0227 24.677C11.4856 24.859 10.9936 25.1621 10.5816 25.5736C9.1196 27.0338 9.11906 29.4128 10.5826 30.8789L10.7574 31.0529L7.1555 34.6482C5.81692 34.0179 4.16767 34.2541 3.06305 35.3573L1.15072 37.2642C0.470527 37.9436 0.0960547 38.8498 0.0959473 39.8158C0.0959473 40.782 0.470527 41.6883 1.15072 42.3677L3.53732 44.7514C3.96002 45.1737 4.64505 45.1733 5.06722 44.7506C5.48949 44.3279 5.48906 43.6428 5.06636 43.2207L2.67977 40.837C2.40885 40.5664 2.25964 40.2037 2.25964 39.8159C2.25964 39.4282 2.40885 39.0657 2.67912 38.7957L4.59155 36.8887C5.06937 36.4114 5.80069 36.3403 6.35607 36.6723C6.39517 36.7311 6.44039 36.787 6.49217 36.8388C6.58487 36.9318 6.69068 37.003 6.80305 37.0551L17.7701 48.006C17.8222 48.1195 17.8937 48.2264 17.9871 48.3199C18.0779 48.4109 18.1816 48.4812 18.2916 48.533C18.5235 48.7952 18.6517 49.1302 18.6517 49.4874C18.6517 49.8752 18.5025 50.2378 18.2316 50.5084L16.3211 52.4166C15.7566 52.9787 14.8383 52.9785 14.2755 52.4183L11.8889 50.0315C11.4664 49.609 10.7815 49.609 10.359 50.0315C9.93655 50.454 9.93655 51.1389 10.359 51.5614L12.7473 53.95C13.4503 54.65 14.3735 54.9999 15.2971 54.9999C16.2209 54.9999 17.1452 54.6495 17.849 53.9488L19.7607 52.0394C20.4409 51.3599 20.8155 50.4537 20.8155 49.4874C20.8155 48.7979 20.6237 48.1394 20.2672 47.5716L24.3209 43.5228C24.3252 43.5184 24.3295 43.514 24.3339 43.5096C24.798 43.0298 26.0907 43.1196 27.3407 43.2064C28.2289 43.2681 29.2191 43.3368 30.1865 43.2253L34.6256 47.6591C34.3381 48.1834 34.1846 48.7753 34.1846 49.3917C34.1846 50.3569 34.5591 51.2626 35.2393 51.942L37.1511 53.8515C37.8309 54.5305 38.737 54.9045 39.7025 54.9045C40.6679 54.9045 41.574 54.5306 42.2539 53.8515L53.8491 42.2703C54.5293 41.591 54.9039 40.6848 54.9039 39.7186C54.9038 38.7526 54.5292 37.8463 53.8484 37.1664ZM25.1388 11.1112L29.8317 11.9995L27.0227 14.8074C26.5882 14.5985 25.9927 14.209 25.3393 13.584C24.4451 12.7285 23.8054 11.7408 23.7471 11.1247C23.747 11.1244 23.747 11.1241 23.747 11.1238C23.747 11.1236 23.7469 11.1235 23.7469 11.1234C23.7427 11.0792 23.7417 11.0438 23.7422 11.0169C23.8837 10.9825 24.2594 10.9444 25.1388 11.1112ZM19.654 11.9932C20.2021 11.4457 21.0535 11.3825 21.6728 11.8019C22.0238 13.2734 23.279 14.607 23.8437 15.1473C24.2622 15.5478 25.6051 16.7485 26.9606 17.0785C27.1439 17.3413 27.2437 17.6547 27.2437 17.9853C27.2437 18.4113 27.0799 18.8095 26.7814 19.1077C26.4837 19.4059 26.0848 19.57 25.6582 19.57C25.2314 19.57 24.8325 19.4059 24.5335 19.1063L24.5334 19.1062L24.5328 19.1056L19.6539 14.2356C19.3565 13.9385 19.1927 13.5403 19.1927 13.1145C19.1928 12.6886 19.3566 12.2904 19.654 11.9932ZM16.8271 16.7141C17.1248 16.416 17.5232 16.2518 17.9493 16.2518C18.3758 16.2518 18.7755 16.4163 19.0751 16.7156L23.0038 20.6364C23.6224 21.256 23.6224 22.2643 23.0059 22.8817C22.7066 23.1798 22.3064 23.344 21.879 23.344C21.4515 23.344 21.0513 23.1798 20.7533 22.883L20.7532 22.8829L17.7728 19.9031C17.7681 19.8985 17.7631 19.8942 17.7584 19.8895L16.8259 18.9575C16.5268 18.6586 16.3621 18.2597 16.3624 17.8341C16.3628 17.4099 16.527 17.0129 16.8271 16.7141ZM13.9948 21.434C14.2927 21.1365 14.692 20.9727 15.1193 20.9727C15.5431 20.9727 15.939 21.1342 16.2356 21.4265L19.2251 24.4146C19.5232 24.7115 19.6874 25.1093 19.6874 25.5347C19.6874 25.96 19.5232 26.3578 19.2239 26.6559C18.9261 26.9532 18.5273 27.117 18.1007 27.117C17.6735 27.117 17.2734 26.9528 16.9752 26.6559L15.8914 25.5734C15.8912 25.5731 15.8908 25.5729 15.8906 25.5726L13.9949 23.6792C13.6961 23.3807 13.5315 22.9819 13.5315 22.5566C13.5315 22.1313 13.6961 21.7324 13.9948 21.434ZM12.1107 27.1044C12.4098 26.8055 12.8097 26.641 13.2364 26.641C13.6631 26.641 14.0628 26.8054 14.3619 27.104L15.4472 28.188C15.7454 28.485 15.9095 28.8827 15.9095 29.3081C15.9095 29.7335 15.7453 30.1312 15.4449 30.4305C15.1473 30.7286 14.7484 30.8928 14.3217 30.8928C13.8949 30.8928 13.4961 30.7287 13.1963 30.4283L13.0604 30.293C13.0585 30.2911 13.0572 30.2892 13.0554 30.2875C13.0534 30.2856 13.0512 30.2838 13.0492 30.2819L12.1117 29.3481C11.4931 28.7282 11.4926 27.7217 12.1107 27.1044ZM34.1573 39.3997C33.735 38.9769 33.05 38.9765 32.6274 39.3987L31.6649 40.36C30.7503 41.2746 29.0931 41.1595 27.4905 41.0483C25.7501 40.9273 23.9505 40.8025 22.7859 41.9981L18.8011 45.9781L8.83633 36.0279L12.3628 32.5078C12.9456 32.8651 13.6182 33.0566 14.3219 33.0566C15.3273 33.0566 16.27 32.6669 16.9742 31.9615C17.6831 31.2555 18.0735 30.3133 18.0735 29.3082C18.0735 29.2989 18.0729 29.2897 18.0729 29.2803C18.0822 29.2804 18.0916 29.281 18.1009 29.281C19.1049 29.281 20.0469 28.8924 20.752 28.1882C21.4609 27.4822 21.8514 26.5399 21.8514 25.5349C21.8514 25.5256 21.8507 25.5164 21.8507 25.507C21.8602 25.507 21.8696 25.5077 21.8792 25.5077C22.8828 25.5077 23.8253 25.1195 24.5352 24.4126C25.2721 23.6745 25.6366 22.7028 25.6296 21.7331C25.6393 21.7332 25.6489 21.7337 25.6586 21.7337C26.664 21.7336 27.6066 21.344 28.3118 20.6375C29.0185 19.9316 29.4078 18.9897 29.4078 17.9853C29.4078 17.2829 29.2168 16.6114 28.8607 16.0297L31.9516 12.9402C32.1819 12.7108 32.4659 12.5669 32.7636 12.5075C32.7958 12.504 32.8276 12.4989 32.8591 12.4926C33.3367 12.4268 33.8382 12.5742 34.2035 12.9379C34.8221 13.5576 34.8221 14.5659 34.2057 15.1833L33.2644 16.1208C33.2613 16.1239 33.2579 16.1267 33.2548 16.1298L32.1706 17.2122C31.7478 17.6344 31.7474 18.3194 32.1697 18.7421C32.592 19.1649 33.277 19.1652 33.6996 18.7431L34.6447 17.7993C34.6449 17.7991 34.6451 17.7988 34.6453 17.7986L34.7882 17.6563C35.4085 17.0416 36.4136 17.0429 37.0333 17.6618C37.3315 17.9587 37.4957 18.3565 37.4957 18.7819C37.4957 19.2071 37.3315 19.6049 37.0309 19.9042L36.0842 20.8528C36.0841 20.853 36.084 20.8531 36.0839 20.8533L34.9998 21.933C34.5764 22.3546 34.575 23.0396 34.9967 23.4629C35.4183 23.8862 36.1032 23.8875 36.5266 23.466L37.6156 22.3814C37.9133 22.0832 38.3121 21.919 38.7388 21.919C39.1656 21.919 39.5646 22.0831 39.8644 22.3835C40.1626 22.6805 40.3267 23.0783 40.3267 23.5037C40.3267 23.929 40.1626 24.3268 39.8627 24.6254L37.9753 26.5136C37.5529 26.9361 37.553 27.6211 37.9755 28.0435C38.1868 28.2546 38.4635 28.3601 38.7403 28.3601C39.0173 28.3601 39.2942 28.2544 39.5054 28.0431L40.4304 27.1178C40.4357 27.1128 40.4414 27.1083 40.4466 27.1031C40.7443 26.8049 41.1431 26.6407 41.5698 26.6407C41.9966 26.6407 42.3955 26.8049 42.6942 27.1042C43.3122 27.7215 43.3117 28.7281 42.6942 29.3466L41.7537 30.286C41.7534 30.2863 41.753 30.2866 41.7527 30.287C41.7523 30.2873 41.752 30.2877 41.7517 30.288L40.259 31.7789C39.8362 32.2012 39.8358 32.8862 40.258 33.309C40.4693 33.5205 40.7464 33.6263 41.0235 33.6263C41.3001 33.6263 41.5768 33.5208 41.788 33.3099L42.5181 32.5806L46.0176 36.076L36.0537 46.0278L32.4837 42.4621C32.7325 42.302 32.9707 42.1138 33.1942 41.8902L34.1562 40.9295C34.5791 40.5074 34.5796 39.8224 34.1573 39.3997ZM52.32 40.7394L40.7247 52.3206C40.4535 52.5915 40.0904 52.7407 39.7024 52.7407C39.3144 52.7407 38.9513 52.5915 38.68 52.3205L36.7682 50.4111C36.4972 50.1406 36.348 49.7786 36.348 49.3917C36.348 49.005 36.4972 48.643 36.7682 48.3724L48.3634 36.7913C48.6347 36.5202 48.9977 36.371 49.3858 36.371C49.7738 36.371 50.1369 36.5202 50.4089 36.7919L52.3201 38.6977C52.591 38.9683 52.7402 39.3307 52.7402 39.7185C52.7401 40.1064 52.5909 40.4689 52.32 40.7394Z" fill="white"/>
<path d="M13.0386 6.07686C13.2498 6.28762 13.5263 6.39289 13.8028 6.39289C14.0799 6.39289 14.3572 6.28697 14.5685 6.07525C14.9906 5.65233 14.9899 4.9674 14.567 4.54534L10.6248 0.611017C10.202 0.188957 9.51699 0.189494 9.09492 0.612521C8.67286 1.03544 8.67351 1.72036 9.09643 2.14242L13.0386 6.07686Z" fill="white"/>
<path d="M41.0054 6.3929C41.282 6.3929 41.5587 6.28741 41.7699 6.07654L45.7091 2.14211C46.1318 1.71994 46.1322 1.03491 45.7099 0.612204C45.2878 0.189499 44.6029 0.189069 44.18 0.611345L40.2409 4.54578C39.8182 4.96795 39.8177 5.65298 40.24 6.07568C40.4513 6.2872 40.7284 6.3929 41.0054 6.3929Z" fill="white"/>
<path d="M6.7481 46.5356C6.32926 46.9616 6.33506 47.6467 6.7612 48.0655L6.76432 48.0685C6.97454 48.2752 7.2475 48.3781 7.52035 48.3781C7.8004 48.3781 8.08045 48.2697 8.29261 48.0539C8.71145 47.6279 8.70404 46.9413 8.278 46.5225C7.85207 46.1036 7.16715 46.1096 6.7481 46.5356Z" fill="white"/>
<path d="M36.5408 36.2401L36.5408 36.2401L36.5364 36.2423C36.2513 36.3861 36.1363 36.7336 36.2819 37.0224L36.282 37.0224C36.383 37.2229 36.5874 37.3412 36.8033 37.3412C36.8915 37.3412 36.9811 37.3213 37.0664 37.2783C37.3533 37.1336 37.4686 36.7838 37.3239 36.4968L36.5408 36.2401ZM36.5408 36.2401L36.5425 36.2393M36.5408 36.2401L36.5425 36.2393M36.5425 36.2393C36.8291 36.0946 37.1791 36.2098 37.3239 36.4968L36.5425 36.2393Z" fill="white" stroke="white"/>
</g>
<defs>
<clipPath id="clip0_53_586">
<rect width="55" height="55" fill="white"/>
</clipPath>
</defs>
</svg>
