<svg width="55" height="55" viewBox="0 0 55 55" fill="none" xmlns="http://www.w3.org/2000/svg">
<g clip-path="url(#clip0_53_560)">
<path d="M19.9214 2.15381C19.7302 1.60048 19.11 1.29905 18.5571 1.48672C16.9436 2.04209 15.3742 2.75215 13.8907 3.59863C10.9777 5.26088 8.33194 7.49654 6.19607 10.1084C5.12615 11.4189 4.17224 12.8337 3.36121 14.314C3.07761 14.8339 3.26882 15.488 3.78875 15.7717C4.30244 16.0518 4.96577 15.857 5.24646 15.3452C8.29402 9.77647 13.2698 5.57627 19.2553 3.51914C19.815 3.32686 20.1147 2.71348 19.9214 2.15381Z" fill="white"/>
<path d="M2.55766 17.6752C2.10219 17.6752 1.69399 17.9642 1.5436 18.3939C1.34809 18.9524 1.64243 19.5669 2.20209 19.7635C2.74038 19.9525 3.3774 19.6568 3.57054 19.105C3.80805 18.4266 3.27459 17.6752 2.55766 17.6752Z" fill="white"/>
<path d="M51.2112 39.2283C50.6975 38.9484 50.0343 39.1428 49.7535 39.6548C46.7061 45.2235 41.7303 49.4237 35.7447 51.4809C35.1986 51.6685 34.8917 52.3029 35.0786 52.8462C35.2687 53.3989 35.892 53.701 36.4439 53.5133C38.0563 52.9579 39.6258 52.2479 41.1093 51.4014C42.5745 50.5656 43.9721 49.5881 45.2622 48.4956C46.547 47.4074 47.7383 46.1946 48.8039 44.8916C49.8738 43.5811 50.8277 42.1663 51.6377 40.6861C51.9183 40.1731 51.7238 39.5076 51.2112 39.2283Z" fill="white"/>
<path d="M53.4113 35.7855C53.2867 35.5266 53.0687 35.3321 52.798 35.2365C51.9342 34.9316 51.0691 35.8732 51.4745 36.7157C51.5991 36.9746 51.8161 37.169 52.0868 37.2636C52.9614 37.5716 53.8115 36.6207 53.4113 35.7855Z" fill="white"/>
<path d="M53.9258 26.4258H50.678C50.4157 20.6313 48.0354 15.2212 43.9071 11.0929C39.7787 6.96459 34.3687 4.58434 28.5742 4.32201V1.07422C28.5742 0.480928 28.0933 0 27.5 0C26.9067 0 26.4258 0.480928 26.4258 1.07422V4.32201C20.6313 4.58434 15.2212 6.96459 11.0929 11.0929C6.96459 15.2212 4.58434 20.6313 4.32201 26.4258H1.07422C0.480928 26.4258 0 26.9067 0 27.5C0 28.0933 0.480928 28.5742 1.07422 28.5742H4.32201C4.58434 34.3687 6.96459 39.7787 11.0929 43.9071C15.2212 48.0354 20.6313 50.4157 26.4258 50.678V53.9258C26.4258 54.5191 26.9067 55 27.5 55C28.0933 55 28.5742 54.5191 28.5742 53.9258V50.678C34.3687 50.4157 39.7787 48.0354 43.9071 43.9071C48.0354 39.7787 50.4157 34.3687 50.678 28.5742H53.9258C54.5191 28.5742 55 28.0933 55 27.5C55 26.9067 54.5191 26.4258 53.9258 26.4258ZM45.332 28.5742H48.5275C47.9843 39.3308 39.3308 47.9843 28.5742 48.5275V45.332C28.5742 44.7387 28.0933 44.2578 27.5 44.2578C26.9067 44.2578 26.4258 44.7387 26.4258 45.332V48.5275C15.6692 47.9843 7.01572 39.3308 6.47249 28.5742H9.66797C10.2613 28.5742 10.7422 28.0933 10.7422 27.5C10.7422 26.9067 10.2613 26.4258 9.66797 26.4258H6.47249C7.01572 15.6692 15.6692 7.01572 26.4258 6.47249V9.66797C26.4258 10.2613 26.9067 10.7422 27.5 10.7422C28.0933 10.7422 28.5742 10.2613 28.5742 9.66797V6.47249C39.3308 7.01572 47.9843 15.6692 48.5275 26.4258H45.332C44.7387 26.4258 44.2578 26.9067 44.2578 27.5C44.2578 28.0933 44.7387 28.5742 45.332 28.5742Z" fill="white"/>
<path d="M33.1235 28.5236C34.3018 27.006 35.0195 25.0109 35.0195 22.8271C35.0195 18.0886 31.6463 14.2334 27.5 14.2334C23.3537 14.2334 19.9805 18.0886 19.9805 22.8271C19.9805 25.011 20.6982 27.0061 21.8766 28.5237C18.4993 30.7534 16.2207 34.9236 16.2207 39.6924C16.2207 40.2857 16.7016 40.7666 17.2949 40.7666H37.7051C38.2984 40.7666 38.7793 40.2857 38.7793 39.6924C38.7793 34.9237 36.5008 30.7533 33.1235 28.5236ZM27.5 16.3818C30.4616 16.3818 32.8711 19.2732 32.8711 22.8271C32.8711 26.3811 30.4616 29.2725 27.5 29.2725C24.5384 29.2725 22.1289 26.3811 22.1289 22.8271C22.1289 19.2732 24.5384 16.3818 27.5 16.3818ZM18.4145 38.6182C18.733 34.8629 20.7029 31.6723 23.4543 30.0653C24.6233 30.9218 26.0112 31.4209 27.5 31.4209C28.9887 31.4209 30.3763 30.9219 31.5454 30.0656C34.297 31.6725 36.2671 34.8628 36.5855 38.6182H18.4145Z" fill="white"/>
</g>
<defs>
<clipPath id="clip0_53_560">
<rect width="55" height="55" fill="white"/>
</clipPath>
</defs>
</svg>
