<svg width="49" height="51" viewBox="0 0 49 51" fill="none" xmlns="http://www.w3.org/2000/svg">
<path fill-rule="evenodd" clip-rule="evenodd" d="M17.0526 2.58333C17.0526 1.6341 17.8221 0.864578 18.7713 0.864578H30.2296C31.1788 0.864578 31.9484 1.6341 31.9484 2.58333V12.5998L40.623 7.59151C41.0176 7.36358 41.487 7.30182 41.9272 7.41982C42.3674 7.5378 42.7428 7.82586 42.9708 8.22062L48.7 18.1439C49.1746 18.9659 48.893 20.0171 48.0709 20.4917L39.3963 25.5L48.0709 30.5082C48.4656 30.736 48.7536 31.1114 48.8716 31.5518C48.9897 31.9921 48.928 32.4612 48.7 32.856L42.9708 42.7792C42.7428 43.174 42.3674 43.4621 41.9272 43.5801C41.487 43.6981 41.0176 43.6362 40.623 43.4085L31.9484 38.4V48.4167C31.9484 49.3659 31.1788 50.1354 30.2296 50.1354H18.7713C17.8221 50.1354 17.0526 49.3659 17.0526 48.4167V38.4L8.37806 43.4085C7.98329 43.6362 7.51414 43.6981 7.07382 43.5801C6.63353 43.4621 6.25813 43.174 6.0302 42.7792L0.301032 32.856C0.0731024 32.4612 0.0113421 31.9921 0.12934 31.5518C0.247315 31.1114 0.535377 30.736 0.93014 30.5082L9.60467 25.5L0.93014 20.4917C0.108073 20.0171 -0.173596 18.9659 0.301032 18.1439L6.0302 8.22062C6.25813 7.82586 6.63353 7.5378 7.07382 7.41982C7.51414 7.30182 7.98329 7.36358 8.37806 7.59151L17.0526 12.5998V2.58333ZM20.49 4.30208V15.5767C20.49 16.1908 20.1626 16.7582 19.6307 17.0652C19.0989 17.3722 18.4438 17.3722 17.912 17.0652L8.14779 11.4279L4.13737 18.3741L13.9016 24.0116C14.4334 24.3186 14.7609 24.8861 14.7609 25.5C14.7609 26.1142 14.4333 26.6813 13.9015 26.9884L4.13737 32.6257L8.14779 39.572L17.912 33.9347C18.4437 33.6276 19.0989 33.6276 19.6307 33.9347C20.1626 34.2418 20.49 34.8092 20.49 35.4231V46.6979H28.5109V35.4231C28.5109 34.8092 28.8386 34.2418 29.3703 33.9347C29.9021 33.6276 30.5573 33.6276 31.089 33.9347L40.8533 39.572L44.8638 32.6257L35.0994 26.9884C34.5678 26.6813 34.24 26.1142 34.24 25.5C34.24 24.8861 34.5678 24.3186 35.0994 24.0116L44.8638 18.3741L40.8533 11.4279L31.089 17.0652C30.5573 17.3722 29.9021 17.3722 29.3703 17.0652C28.8386 16.7582 28.5109 16.1908 28.5109 15.5767V4.30208H20.49Z" fill="url(#paint0_linear_10_493)"/>
<defs>
<linearGradient id="paint0_linear_10_493" x1="7.5" y1="-4" x2="24.5005" y2="50.1354" gradientUnits="userSpaceOnUse">
<stop stop-color="#7500EB"/>
<stop offset="1" stop-color="#D300F5"/>
</linearGradient>
</defs>
</svg>
