<svg width="38" height="38" viewBox="0 0 38 38" fill="none" xmlns="http://www.w3.org/2000/svg">
<path d="M33.4613 12.2201L30.4375 0.927014C30.3951 0.768377 30.3218 0.619654 30.2219 0.489344C30.1219 0.359034 29.9973 0.249691 29.8551 0.167562C29.7129 0.0854338 29.5559 0.0321292 29.3931 0.0106945C29.2303 -0.0107403 29.0649 0.000114781 28.9063 0.0426396L27.205 0.49889C27.0604 0.536567 26.9238 0.60009 26.8019 0.68639L23.1406 3.30451L19.9781 0.594515C19.6364 0.301153 19.201 0.139864 18.7506 0.139864C18.3003 0.139864 17.8648 0.301153 17.5231 0.594515L0.648131 15.1383C0.444123 15.3148 0.28061 15.5333 0.168757 15.7787C0.056903 16.0242 -0.000657394 16.291 5.66399e-06 16.5608V35.3608C5.66399e-06 35.858 0.19755 36.335 0.549181 36.6866C0.900811 37.0382 1.37772 37.2358 1.87501 37.2358H35.625C36.1223 37.2358 36.5992 37.0382 36.9508 36.6866C37.3025 36.335 37.5 35.858 37.5 35.3608V16.5608C37.5008 16.2907 37.4432 16.0237 37.3312 15.778C37.2193 15.5323 37.0555 15.3136 36.8513 15.137L33.4613 12.2201ZM36.2369 35.427L24.8294 26.2983L36.25 17.1589V35.3608C36.2469 35.3831 36.2425 35.4052 36.2369 35.427V35.427ZM1.25001 35.3608V17.1583L12.6738 26.2983L1.26313 35.427C1.25743 35.4052 1.25305 35.3831 1.25001 35.3608V35.3608ZM18.3575 23.3501C18.4693 23.2627 18.6071 23.2152 18.7491 23.2152C18.891 23.2152 19.0288 23.2627 19.1406 23.3501L34.9338 35.9858H2.56563L18.3575 23.3501ZM29.2281 1.25014L32.4631 13.3245L31.2556 13.6476L28.0206 1.57389L29.2281 1.25014ZM18.125 8.11076L19.4188 12.9408L15.7938 13.9114C15.1528 14.0829 14.47 13.9929 13.8955 13.661C13.321 13.3291 12.9019 12.7826 12.7303 12.1417C12.5588 11.5008 12.6488 10.818 12.9807 10.2435C13.3126 9.66896 13.8591 9.24983 14.5 9.07826L18.125 8.11076ZM19.1388 14.3095L20.2713 18.5358C20.314 18.6958 20.2915 18.8663 20.2086 19.0097C20.1258 19.1532 19.9894 19.2578 19.8294 19.3008V19.3008C19.6693 19.3435 19.4989 19.321 19.3554 19.2382C19.212 19.1553 19.1073 19.0189 19.0644 18.8589L17.9319 14.6333L19.1388 14.3095ZM20.6763 12.802L19.2831 7.60201L26.885 2.16451L29.9769 13.7039L20.6763 12.802ZM18.3406 1.53951C18.4544 1.44033 18.6003 1.3857 18.7513 1.3857C18.9022 1.3857 19.0481 1.44033 19.1619 1.53951L22.0931 4.05139L18.2944 6.76639L14.3256 7.82889C13.3981 8.06201 12.5904 8.63173 12.0597 9.42728C11.5289 10.2228 11.3129 11.1873 11.4538 12.1333C11.543 12.6464 11.7382 13.1353 12.0268 13.5689C12.3154 14.0024 12.6912 14.3711 13.1302 14.6514C13.5692 14.9317 14.0618 15.1175 14.5765 15.1969C15.0913 15.2763 15.617 15.2476 16.12 15.1126L16.7238 14.9514L17.8394 19.1158C17.9354 19.5032 18.1473 19.852 18.4469 20.1158C18.6785 20.3135 18.9548 20.4518 19.2519 20.5188C19.5489 20.5857 19.8578 20.5793 20.1519 20.5001V20.5001C20.4467 20.4216 20.7178 20.2724 20.9419 20.0653C21.1659 19.8583 21.336 19.5997 21.4375 19.312C21.5631 18.9339 21.5707 18.5265 21.4594 18.1439L20.3563 14.0239L30.64 15.0239C30.7891 15.0388 30.9397 15.0265 31.0844 14.9876L32.7869 14.5314C32.9464 14.4889 33.0958 14.415 33.2264 14.314C33.3571 14.213 33.4662 14.087 33.5475 13.9433L35.8219 15.9001L23.8294 25.4995L19.92 22.3714C19.5876 22.1056 19.1747 21.9608 18.7491 21.9608C18.3235 21.9608 17.9105 22.1056 17.5781 22.3714L13.6738 25.4964L1.67751 15.9001L18.3406 1.53951Z" fill="white"/>
<path d="M33.2604 6.64012C33.296 6.77312 33.3744 6.89068 33.4836 6.97453C33.5927 7.05839 33.7265 7.10385 33.8642 7.10387C33.9189 7.1039 33.9733 7.09655 34.0261 7.082L36.4411 6.43512C36.6012 6.39219 36.7377 6.28741 36.8206 6.14383C36.9034 6.00025 36.9259 5.82962 36.8829 5.6695C36.84 5.50938 36.7352 5.37286 36.5916 5.29C36.4481 5.20713 36.2774 5.18469 36.1173 5.22762L33.7023 5.87512C33.5423 5.91805 33.4059 6.02273 33.3231 6.16617C33.2402 6.30962 33.2177 6.48009 33.2604 6.64012V6.64012Z" fill="white"/>
<path d="M32.5262 3.5795C32.6084 3.57957 32.6898 3.56342 32.7657 3.532C32.8416 3.50058 32.9106 3.45449 32.9687 3.39638L34.7362 1.62888C34.7959 1.57122 34.8435 1.50226 34.8763 1.426C34.9091 1.34975 34.9263 1.26774 34.927 1.18475C34.9277 1.10177 34.9119 1.01947 34.8805 0.942655C34.8491 0.865845 34.8027 0.796063 34.744 0.73738C34.6853 0.678697 34.6155 0.632288 34.5387 0.600863C34.4619 0.569437 34.3796 0.553624 34.2966 0.554345C34.2136 0.555066 34.1316 0.572307 34.0554 0.605063C33.9791 0.637819 33.9101 0.685433 33.8525 0.745126L32.0844 2.51263C31.997 2.60003 31.9375 2.71139 31.9134 2.83261C31.8893 2.95383 31.9016 3.07947 31.9489 3.19366C31.9962 3.30785 32.0763 3.40545 32.1791 3.47413C32.2818 3.5428 32.4026 3.57947 32.5262 3.5795Z" fill="white"/>
<path d="M33.8641 10.0371C33.8428 10.1164 33.8374 10.1991 33.8481 10.2804C33.8588 10.3618 33.8854 10.4403 33.9265 10.5114C33.9675 10.5825 34.0221 10.6448 34.0872 10.6948C34.1524 10.7448 34.2267 10.7814 34.306 10.8027L36.721 11.4496C36.7737 11.4641 36.8282 11.4715 36.8829 11.4714C37.0345 11.4715 37.1811 11.4164 37.2951 11.3165C37.4092 11.2165 37.483 11.0784 37.5028 10.9281C37.5226 10.7777 37.4871 10.6253 37.4028 10.4992C37.3185 10.3731 37.1913 10.2819 37.0447 10.2427L34.6297 9.59519C34.5505 9.57393 34.4678 9.56848 34.3864 9.57918C34.305 9.58988 34.2265 9.61651 34.1554 9.65754C34.0843 9.69857 34.022 9.75321 33.972 9.81833C33.922 9.88345 33.8854 9.95778 33.8641 10.0371V10.0371Z" fill="white"/>
</svg>
