<svg width="40" height="40" viewBox="0 0 40 40" fill="none" xmlns="http://www.w3.org/2000/svg">
<g clip-path="url(#clip0_77_1703)">
<path d="M17.7097 3.99854H13.7313C13.7279 3.99854 13.7248 3.99948 13.7213 3.99959C13.6942 3.9999 13.6672 4.00257 13.6405 4.00759C13.6382 4.00759 13.6359 4.00889 13.6336 4.00936C13.609 4.01476 13.5848 4.02211 13.5613 4.03136C13.5532 4.03442 13.5456 4.03806 13.5378 4.04159C13.5196 4.04986 13.5019 4.05929 13.4849 4.06983C13.4778 4.07418 13.4706 4.07818 13.4638 4.08301C13.4407 4.09864 13.419 4.11632 13.3991 4.13583L7.75605 9.75936C7.73629 9.77928 7.71841 9.80098 7.70263 9.82418C7.69793 9.83089 7.69393 9.83795 7.68958 9.84489C7.67877 9.86218 7.66914 9.88019 7.66075 9.89877C7.65734 9.9063 7.65381 9.91371 7.65075 9.92136C7.64066 9.94659 7.63279 9.97265 7.62722 9.99924V10.001C7.62214 10.0282 7.61943 10.0557 7.61911 10.0834C7.61911 10.0867 7.61816 10.0897 7.61816 10.093V17.9647C7.61816 18.0895 7.66774 18.2092 7.756 18.2974C7.84425 18.3857 7.96394 18.4352 8.08875 18.4352C8.21356 18.4352 8.33326 18.3857 8.42151 18.2974C8.50976 18.2092 8.55934 18.0895 8.55934 17.9647V10.563H12.4843C12.9397 10.5624 13.3763 10.3811 13.6983 10.059C14.0203 9.73688 14.2014 9.30022 14.2019 8.84477V4.93971H17.7097C17.8345 4.93971 17.9542 4.89013 18.0424 4.80188C18.1307 4.71363 18.1803 4.59393 18.1803 4.46912C18.1803 4.34432 18.1307 4.22462 18.0424 4.13637C17.9542 4.04811 17.8345 3.99854 17.7097 3.99854ZM13.2608 8.84477C13.2605 9.05069 13.1787 9.24812 13.0331 9.39379C12.8876 9.53945 12.6902 9.62146 12.4843 9.62183H9.22711L9.66863 9.18195L13.2608 5.60242V8.84477Z" fill="white"/>
<path d="M12.5458 34.9485C12.421 34.9485 12.3013 34.9981 12.213 35.0863C12.1248 35.1746 12.0752 35.2943 12.0752 35.4191C12.0752 35.5439 12.1248 35.6636 12.213 35.7518C12.3013 35.8401 12.421 35.8897 12.5458 35.8897H24.7507L24.4526 36.3159C24.2204 36.648 24.1296 37.0588 24.2002 37.4578C24.2709 37.8568 24.4971 38.2115 24.8292 38.4437C25.1613 38.6759 25.572 38.7667 25.9711 38.6961C26.3701 38.6254 26.7247 38.3992 26.957 38.0671L33.1606 29.1952V34.0423C33.1602 34.2824 33.0646 34.5126 32.8948 34.6824C32.725 34.8522 32.4949 34.9477 32.2547 34.9481H30.7218C30.597 34.9481 30.4773 34.9977 30.389 35.086C30.3008 35.1742 30.2512 35.2939 30.2512 35.4187C30.2512 35.5435 30.3008 35.6632 30.389 35.7515C30.4773 35.8397 30.597 35.8893 30.7218 35.8893H32.2547C32.7444 35.8886 33.2138 35.6938 33.56 35.3476C33.9063 35.0013 34.1011 34.5319 34.1018 34.0423V27.8493L37.6104 22.8317C37.9172 22.3941 38.1258 21.8955 38.2221 21.3699L38.5467 19.6139C38.563 19.5258 38.5538 19.4348 38.5202 19.3518C38.4866 19.2687 38.4299 19.1969 38.3569 19.145C38.2839 19.093 38.1976 19.0629 38.1081 19.0584C38.0186 19.0538 37.9296 19.0748 37.8517 19.1191L36.3067 19.996C35.8239 20.2709 35.408 20.6494 35.0891 21.1043L34.1014 22.5167V12.0654C34.1014 11.9406 34.0519 11.8209 33.9636 11.7327C33.8753 11.6444 33.7557 11.5948 33.6308 11.5948C33.506 11.5948 33.3863 11.6444 33.2981 11.7327C33.2098 11.8209 33.1603 11.9406 33.1603 12.0654V23.5968C33.1605 23.6661 33.1763 23.7345 33.2064 23.7968L25.4085 34.9486L12.5458 34.9485ZM35.8608 21.6436C36.0994 21.3033 36.4104 21.0202 36.7715 20.8146L37.4379 20.4364L37.2967 21.1988C37.2247 21.5923 37.0686 21.9655 36.839 22.293L33.2407 27.4386L26.1853 37.5284C26.1412 37.5915 26.085 37.6453 26.02 37.6868C25.9551 37.7282 25.8826 37.7565 25.8067 37.7699C25.7309 37.7833 25.6531 37.7817 25.5779 37.765C25.5026 37.7484 25.4314 37.7171 25.3683 37.673C25.3051 37.6288 25.2513 37.5727 25.2098 37.5077C25.1684 37.4427 25.1402 37.3703 25.1267 37.2944C25.1133 37.2185 25.115 37.1407 25.1316 37.0655C25.1482 36.9903 25.1795 36.9191 25.2237 36.8559L35.8608 21.6436Z" fill="white"/>
<path d="M1.04662 37.7068C4.01345 38.7819 9.13156 39.3473 9.34792 39.3708C9.46157 39.383 9.57581 39.3536 9.66933 39.2878C9.76286 39.2221 9.8293 39.1246 9.85627 39.0135L10.7131 35.4695C10.7279 35.4082 10.7302 35.3445 10.72 35.2823C10.7097 35.22 10.687 35.1605 10.6532 35.1072C10.6195 35.0539 10.5754 35.0079 10.5235 34.972C10.4716 34.9361 10.4131 34.911 10.3513 34.8982L9.81015 34.7859L10.6094 31.7496C11.2812 31.8017 11.9669 31.8115 12.4644 31.8127C12.8681 31.8134 13.2613 31.6842 13.5858 31.444C13.9104 31.2039 14.1489 30.8657 14.2663 30.4794L14.6084 29.3696C14.6268 29.31 14.6331 29.2474 14.627 29.1853C14.621 29.1232 14.6026 29.063 14.5731 29.008C14.5435 28.9531 14.5033 28.9046 14.4549 28.8654C14.4064 28.8261 14.3506 28.7969 14.2907 28.7794C13.0465 28.4147 11.7462 27.6756 10.8745 27.1194C10.3813 26.8049 10.0111 26.3306 9.82568 25.7759C9.29827 24.185 8.94462 21.8997 8.78074 20.6792C8.75386 20.4779 8.67892 20.2861 8.56226 20.12C8.4456 19.9538 8.29064 19.8182 8.11051 19.7246C7.93037 19.631 7.73033 19.5821 7.52732 19.5821C7.3243 19.5821 7.12428 19.631 6.94415 19.7247L6.55427 19.9275C6.46697 19.7378 6.33848 19.57 6.17814 19.4363C6.01781 19.3026 5.82967 19.2063 5.62742 19.1544C5.42517 19.1026 5.21391 19.0965 5.00901 19.1366C4.80411 19.1767 4.61074 19.262 4.44298 19.3863L2.80027 20.606C2.57302 20.7748 2.39119 20.9973 2.27106 21.2537C2.15093 21.51 2.09625 21.7921 2.11192 22.0748C2.14109 22.6252 2.19215 23.1073 2.2265 23.3924L1.7125 23.7973C1.4901 23.9714 1.31451 24.1982 1.20155 24.4571C1.0886 24.716 1.04182 24.999 1.06545 25.2804C1.22429 27.0761 1.77211 28.8157 2.67086 30.3783C2.80533 30.61 2.85055 30.8827 2.79803 31.1454L2.38145 33.244L2.09521 33.1852C1.97388 33.16 1.84752 33.1837 1.74356 33.2511C1.6396 33.3185 1.56642 33.4242 1.53992 33.5453L0.74721 37.1637C0.722822 37.2752 0.739739 37.3917 0.794814 37.4916C0.84989 37.5915 0.939374 37.6679 1.04662 37.7068ZM2.00368 25.2019C1.99325 25.0755 2.0144 24.9486 2.0652 24.8325C2.11601 24.7163 2.19489 24.6146 2.29474 24.5366L2.37909 24.4706C2.5316 25.349 2.79212 26.2053 3.15474 27.0199C3.1808 27.0759 3.21765 27.1262 3.26317 27.168C3.3087 27.2098 3.36201 27.2423 3.42006 27.2635C3.47811 27.2846 3.53977 27.2942 3.60152 27.2916C3.66326 27.2889 3.72388 27.2742 3.77992 27.2481C3.83595 27.222 3.88631 27.1852 3.9281 27.1397C3.9699 27.0941 4.00232 27.0408 4.02351 26.9828C4.04471 26.9247 4.05426 26.8631 4.05162 26.8013C4.04899 26.7396 4.03422 26.679 4.00815 26.6229C3.35556 25.2199 3.19756 23.5707 3.19639 23.5542C3.19639 23.5514 3.19509 23.5487 3.19474 23.5459C3.19474 23.5404 3.19474 23.5352 3.19356 23.5297C3.19239 23.5243 3.09545 22.8448 3.05239 22.0255C3.0451 21.8979 3.06957 21.7705 3.12361 21.6547C3.17765 21.5389 3.25957 21.4382 3.36203 21.3619L3.80662 21.0317C3.8765 22.1836 4.09686 24.2034 4.7918 25.8059C4.84146 25.9204 4.93457 26.0105 5.05066 26.0563C5.16674 26.1022 5.29629 26.1 5.4108 26.0504C5.52531 26.0007 5.6154 25.9076 5.66126 25.7915C5.70712 25.6754 5.70499 25.5459 5.65533 25.4314C4.8705 23.6216 4.74109 21.1204 4.7198 20.3537L5.00474 20.142C5.06999 20.0935 5.14691 20.0632 5.22767 20.0542C5.30843 20.0451 5.39015 20.0576 5.46452 20.0903C5.53889 20.1231 5.60326 20.175 5.65107 20.2407C5.69889 20.3064 5.72845 20.3836 5.73674 20.4644L5.75803 20.6719C5.76874 20.7986 5.96145 23.0248 6.46639 24.923C6.48185 24.9832 6.50908 25.0397 6.5465 25.0893C6.58392 25.1389 6.63079 25.1806 6.6844 25.212C6.73802 25.2434 6.79732 25.2639 6.85889 25.2722C6.92046 25.2806 6.98307 25.2767 7.04311 25.2607C7.10316 25.2447 7.15944 25.217 7.20873 25.1792C7.25801 25.1414 7.29931 25.0941 7.33025 25.0403C7.36119 24.9864 7.38116 24.9269 7.389 24.8653C7.39683 24.8036 7.39239 24.7411 7.37592 24.6811C6.99627 23.2539 6.79639 21.5795 6.7258 20.8999L7.37921 20.5599C7.42531 20.5359 7.47648 20.5235 7.52842 20.5235C7.58035 20.5236 7.6315 20.5361 7.67755 20.5601C7.7236 20.5842 7.76319 20.6189 7.79296 20.6614C7.82274 20.704 7.84183 20.7531 7.84862 20.8046C8.05415 22.3354 8.40921 24.492 8.93309 26.0723C9.18659 26.8322 9.69326 27.482 10.3684 27.913C11.1883 28.4363 12.3716 29.1141 13.5723 29.5366L13.3669 30.2027C13.3081 30.3965 13.1885 30.5663 13.0257 30.6868C12.863 30.8074 12.6657 30.8723 12.4632 30.8721C11.7428 30.8769 11.0226 30.8453 10.3054 30.7774C10.1936 30.7656 10.0812 30.7942 9.98865 30.8581C9.89607 30.9219 9.82938 31.0168 9.80062 31.1255L8.88721 34.5949L3.30274 33.4353L3.72098 31.3287C3.81824 30.8412 3.73402 30.3349 3.48415 29.9052C2.65523 28.4634 2.15005 26.8585 2.00368 25.2019ZM2.35945 34.2008L9.68403 35.7209L9.03956 38.3867C7.82239 38.2368 4.16897 37.7435 1.75627 36.9556L2.35945 34.2008Z" fill="white"/>
<path d="M38.0121 1.64323L34.3286 2.03453C34.2054 2.04763 34.0923 2.10879 34.0139 2.20473C33.9355 2.30068 33.8981 2.42366 33.9099 2.547L33.9375 2.83806L31.8057 3.02229C31.5389 3.04599 31.2727 2.97116 31.0573 2.81194C29.6023 1.74782 27.9332 1.01313 26.1659 0.658881C25.8887 0.604561 25.6024 0.62 25.3326 0.703809C25.0629 0.787617 24.8183 0.937165 24.6207 1.139L24.1619 1.60559C23.8821 1.54029 23.4089 1.43665 22.8647 1.34676C22.5855 1.30043 22.2991 1.32403 22.0313 1.41545C21.7634 1.50687 21.5224 1.66327 21.3297 1.87065L19.7733 3.54594C19.6347 3.69529 19.5343 3.87589 19.4805 4.07239C19.4267 4.26889 19.4211 4.47548 19.4643 4.67458C19.5074 4.87369 19.598 5.05943 19.7284 5.21601C19.8587 5.37259 20.0249 5.49538 20.2129 5.57394L20.1079 5.73112C19.983 5.91759 19.9048 6.13134 19.8798 6.35437C19.8548 6.5774 19.8837 6.80316 19.9642 7.01266C20.0447 7.22216 20.1743 7.40924 20.3422 7.55817C20.5101 7.7071 20.7113 7.8135 20.9289 7.86841C22.3326 8.22206 24.2996 8.77829 25.6989 9.41982C26.23 9.66486 26.6609 10.0848 26.9195 10.6094C27.3769 11.537 27.9695 12.9105 28.1953 14.187C28.2061 14.2484 28.2291 14.3071 28.2628 14.3595C28.2965 14.412 28.3404 14.4572 28.3917 14.4926C28.4431 14.528 28.501 14.5528 28.562 14.5656C28.623 14.5784 28.686 14.579 28.7473 14.5672L29.8876 14.3488C30.2844 14.2744 30.6468 14.0743 30.921 13.778C31.1953 13.4818 31.3668 13.1051 31.4103 12.7037C31.465 12.2122 31.529 11.5272 31.5508 10.853L34.6567 10.391L34.7088 10.9412C34.7199 11.0577 34.7739 11.1659 34.8605 11.2447C34.947 11.3235 35.0598 11.3672 35.1768 11.3674C35.1968 11.3673 35.2167 11.3661 35.2366 11.3636L38.853 10.9001C38.9664 10.8855 39.0707 10.8302 39.1463 10.7444C39.2219 10.6587 39.2637 10.5483 39.2639 10.4339C39.2639 10.2163 39.2628 5.06712 38.519 2.00029C38.492 1.88955 38.4257 1.79236 38.3325 1.72672C38.2393 1.66107 38.1255 1.63141 38.0121 1.64323ZM31.0186 9.98065C30.9073 9.99718 30.8056 10.053 30.732 10.1381C30.6583 10.2232 30.6176 10.3318 30.6172 10.4443C30.606 11.1646 30.5585 11.8839 30.4749 12.5995C30.453 12.8009 30.3667 12.9898 30.229 13.1384C30.0913 13.287 29.9094 13.3873 29.7102 13.4244L29.0256 13.5556C28.7376 12.3161 28.1935 11.0655 27.7631 10.1931C27.4087 9.47487 26.8185 8.90005 26.0912 8.56476C24.6269 7.893 22.6003 7.319 21.1588 6.9557C21.0874 6.93758 21.0215 6.90258 20.9665 6.85366C20.9115 6.80473 20.869 6.7433 20.8427 6.67455C20.8164 6.6058 20.8069 6.53172 20.8152 6.45857C20.8235 6.38542 20.8492 6.31532 20.8902 6.25417L21.1915 5.80359C21.8589 5.94817 23.5 6.32982 24.8788 6.86406C24.9949 6.90782 25.1235 6.90398 25.2368 6.85337C25.3501 6.80275 25.4388 6.70946 25.4836 6.59379C25.5284 6.47812 25.5258 6.34942 25.4762 6.2357C25.4266 6.12198 25.3342 6.03242 25.2189 5.98653C23.3848 5.27582 21.1899 4.84029 21.0702 4.81676L20.6317 4.72265C20.5759 4.71064 20.5243 4.68407 20.4821 4.64564C20.4399 4.60721 20.4087 4.55828 20.3915 4.50384C20.3744 4.4494 20.372 4.39139 20.3845 4.33572C20.3971 4.28004 20.4242 4.22869 20.463 4.18688L20.8684 3.75017C21.6277 3.855 24.0969 4.25606 25.8129 5.23641C25.9213 5.29831 26.0498 5.31463 26.1702 5.28177C26.2906 5.2489 26.3931 5.16955 26.455 5.06117C26.5169 4.9528 26.5332 4.82426 26.5003 4.70385C26.4675 4.58344 26.3881 4.48102 26.2797 4.41912C24.7629 3.55276 22.7795 3.11253 21.6422 2.917L22.0187 2.51112C22.1058 2.41762 22.2147 2.34718 22.3357 2.30612C22.4568 2.26505 22.5861 2.25464 22.7121 2.27582C23.5219 2.40865 24.1852 2.57947 24.1919 2.5817C24.1986 2.58394 24.2024 2.58359 24.2077 2.58476C24.2107 2.58476 24.2133 2.58676 24.2162 2.58735C24.2323 2.59065 25.849 2.92523 27.1772 3.73053C27.2839 3.79524 27.4119 3.81491 27.5332 3.7852C27.5932 3.77049 27.6497 3.7441 27.6996 3.70754C27.7494 3.67098 27.7915 3.62496 27.8236 3.57212C27.8556 3.51927 27.8769 3.46063 27.8863 3.39955C27.8957 3.33846 27.8929 3.27613 27.8782 3.2161C27.8635 3.15608 27.8371 3.09954 27.8006 3.04971C27.764 2.99988 27.718 2.95775 27.6652 2.9257C26.8952 2.47604 26.0726 2.12332 25.2161 1.87559L25.2914 1.799C25.38 1.70833 25.4897 1.64109 25.6107 1.60331C25.7317 1.56552 25.8601 1.55838 25.9846 1.58253C27.6151 1.90952 29.155 2.58744 30.4973 3.56923C30.8971 3.86457 31.3911 4.00372 31.8863 3.96053L34.0262 3.77559L34.5666 9.45335L31.0186 9.98065ZM35.5996 10.3682L34.8909 2.92112L37.6944 2.62359C38.213 5.107 38.3035 8.79335 38.3193 10.0197L35.5996 10.3682Z" fill="white"/>
<path d="M20.5797 11.3986C18.9246 11.4222 17.323 11.9881 16.0203 13.0094C14.7177 14.0307 13.786 15.4511 13.3681 17.0528C12.9502 18.6544 13.0692 20.349 13.7068 21.8765C14.3444 23.4041 15.4655 24.6803 16.8981 25.5095C16.9609 25.5468 17.0128 25.5997 17.0487 25.6633C17.0847 25.7268 17.1034 25.7986 17.1029 25.8715V29.0914C17.1039 29.9249 17.4355 30.724 18.0249 31.3134C18.6143 31.9028 19.4134 32.2343 20.2469 32.2353H21.1283C21.9619 32.2344 22.761 31.9028 23.3504 31.3134C23.9399 30.724 24.2714 29.9249 24.2723 29.0913V27.4948C24.2723 27.37 24.2228 27.2503 24.1345 27.1621C24.0463 27.0738 23.9266 27.0242 23.8017 27.0242H22.1954V25.6572C22.1951 25.4599 22.2417 25.2655 22.3315 25.0898C22.4212 24.9142 22.5515 24.7624 22.7115 24.6471C23.5032 24.0808 24.8825 22.8784 25.2262 21.1765C25.2356 21.1239 25.4519 19.8759 24.9588 18.7272C24.8047 18.368 24.5725 18.0477 24.2792 17.7895C23.9859 17.5312 23.6388 17.3415 23.263 17.234C22.8924 17.1243 22.5019 17.0984 22.12 17.1584C21.7381 17.2183 21.3744 17.3625 21.0552 17.5806C21.0042 17.6156 20.9607 17.6603 20.927 17.7121C20.8933 17.7639 20.8702 17.8218 20.8589 17.8826C20.8476 17.9434 20.8484 18.0058 20.8612 18.0662C20.874 18.1267 20.8986 18.184 20.9336 18.2349C20.9686 18.2859 21.0133 18.3294 21.0651 18.3631C21.1169 18.3968 21.1749 18.4199 21.2356 18.4312C21.2964 18.4425 21.3588 18.4417 21.4192 18.4289C21.4797 18.4161 21.537 18.3915 21.588 18.3565C21.7926 18.2175 22.0256 18.1257 22.27 18.088C22.5145 18.0502 22.7643 18.0673 23.0013 18.138C23.2433 18.2069 23.4669 18.3289 23.6558 18.495C23.8448 18.6611 23.9945 18.8672 24.0939 19.0984C24.473 19.9815 24.3016 21 24.3017 21C24.0239 22.3752 22.8429 23.3952 22.1641 23.881C21.8824 24.0835 21.6529 24.3501 21.4947 24.6589C21.3365 24.9677 21.2541 25.3097 21.2542 25.6566V27.0237H20.2172V25.6566C20.2173 25.3096 20.1349 24.9676 19.9767 24.6589C19.8185 24.3501 19.589 24.0834 19.3073 23.881C18.6874 23.4485 18.1495 22.9089 17.719 22.2877C17.6854 22.2353 17.6416 22.1901 17.5904 22.1547C17.5391 22.1194 17.4813 22.0946 17.4204 22.0817C17.3594 22.0688 17.2966 22.0682 17.2354 22.0798C17.1742 22.0914 17.1159 22.1151 17.0639 22.1494C17.012 22.1837 16.9673 22.228 16.9326 22.2797C16.8979 22.3314 16.8737 22.3895 16.8616 22.4505C16.8495 22.5116 16.8496 22.5745 16.862 22.6356C16.8743 22.6966 16.8987 22.7546 16.9336 22.8061C17.4277 23.5238 18.0462 24.1473 18.7599 24.6471C18.9199 24.7624 19.0501 24.9142 19.1399 25.0898C19.2296 25.2655 19.2763 25.4599 19.276 25.6572V27.0242H18.0441V25.8713C18.0443 25.6334 17.9822 25.3997 17.864 25.1933C17.7458 24.9869 17.5756 24.815 17.3703 24.6948C16.3375 24.0966 15.4853 23.2305 14.9039 22.1881C14.3224 21.1457 14.0333 19.9656 14.0669 18.7725C14.1645 15.274 17.0919 12.388 20.5928 12.3391C21.4705 12.3265 22.3419 12.4885 23.1565 12.8157C23.971 13.1429 24.7124 13.6287 25.3375 14.2449C25.9626 14.8611 26.459 15.5955 26.7978 16.4052C27.1366 17.215 27.3111 18.084 27.3112 18.9618C27.3087 20.124 27.0016 21.2653 26.4205 22.2719C25.8393 23.2784 25.0045 24.115 23.9992 24.6982C23.795 24.8184 23.6259 24.99 23.5087 25.1959C23.3915 25.4017 23.3303 25.6348 23.3313 25.8717C23.3313 25.9965 23.3809 26.1162 23.4691 26.2044C23.5574 26.2927 23.6771 26.3422 23.8019 26.3422C23.9267 26.3422 24.0464 26.2927 24.1346 26.2044C24.2229 26.1162 24.2725 25.9965 24.2725 25.8717C24.2714 25.7999 24.2891 25.7291 24.3238 25.6663C24.3586 25.6034 24.4091 25.5508 24.4705 25.5135C25.6184 24.8474 26.5717 23.8919 27.2353 22.7424C27.8988 21.593 28.2495 20.2896 28.2522 18.9624C28.2522 17.9599 28.0529 16.9674 27.666 16.0426C27.279 15.1178 26.7121 14.2792 25.9982 13.5754C25.2843 12.8716 24.4377 12.3168 23.5074 11.9431C22.5772 11.5694 21.582 11.3843 20.5796 11.3986H20.5797ZM18.0441 27.9654H23.3313V29.0914C23.3306 29.6754 23.0983 30.2353 22.6853 30.6483C22.2724 31.0612 21.7125 31.2935 21.1285 31.2941H20.2469C19.6629 31.2935 19.103 31.0612 18.69 30.6482C18.277 30.2353 18.0447 29.6753 18.044 29.0913L18.0441 27.9654Z" fill="white"/>
<path d="M7.7372 36.554C7.70694 36.5599 7.67738 36.569 7.64897 36.581C7.62072 36.5928 7.59352 36.607 7.56767 36.6234C7.54225 36.641 7.51829 36.6607 7.49603 36.6822C7.40789 36.7706 7.3584 36.8903 7.3584 37.0151C7.3584 37.14 7.40789 37.2597 7.49603 37.3481C7.51829 37.3696 7.54225 37.3893 7.56767 37.4069C7.59352 37.4233 7.62072 37.4375 7.64897 37.4493C7.67738 37.4613 7.70694 37.4703 7.7372 37.4763C7.76742 37.4824 7.79815 37.4855 7.82897 37.4857C7.89481 37.486 7.95998 37.4724 8.02025 37.4459C8.08053 37.4194 8.13457 37.3806 8.17889 37.3319C8.2232 37.2832 8.2568 37.2257 8.27752 37.1632C8.29824 37.1007 8.30561 37.0346 8.29915 36.969C8.2927 36.9035 8.27257 36.84 8.24006 36.7828C8.20754 36.7255 8.16338 36.6757 8.11041 36.6366C8.05745 36.5975 7.99687 36.5699 7.93258 36.5557C7.86829 36.5414 7.80173 36.5409 7.7372 36.554Z" fill="white"/>
<path d="M37.524 8.48581C37.5119 8.45755 37.4973 8.4304 37.4805 8.40463C37.4629 8.37917 37.4432 8.35517 37.4217 8.33286C37.3999 8.31115 37.3758 8.29183 37.3499 8.27522C37.3246 8.25773 37.2973 8.24313 37.2688 8.23169C37.2403 8.21967 37.2108 8.21061 37.1805 8.20463C37.0893 8.18541 36.9945 8.19423 36.9084 8.22992C36.8223 8.26562 36.749 8.32652 36.6982 8.40463C36.6809 8.43013 36.6663 8.45733 36.6546 8.48581C36.6427 8.51425 36.6337 8.54381 36.6276 8.57404C36.6215 8.60426 36.6184 8.63499 36.6182 8.66581C36.6183 8.69663 36.6215 8.72736 36.6276 8.75757C36.6335 8.78784 36.6426 8.81742 36.6546 8.84581C36.6663 8.87428 36.6809 8.90148 36.6982 8.92698C36.7404 8.99193 36.7983 9.04516 36.8666 9.08177C36.9349 9.11837 37.0113 9.13716 37.0888 9.13639C37.1196 9.13682 37.1504 9.13366 37.1805 9.12698C37.2107 9.1214 37.2403 9.11273 37.2688 9.1011C37.2971 9.08919 37.3243 9.07461 37.3499 9.05757C37.3756 9.04018 37.3996 9.02049 37.4217 8.99875C37.4655 8.95506 37.5001 8.90316 37.5238 8.84602C37.5474 8.78888 37.5595 8.72763 37.5593 8.66581C37.5595 8.63502 37.5568 8.6043 37.5511 8.57404C37.5444 8.54396 37.5354 8.51446 37.524 8.48581Z" fill="white"/>
<path d="M18.6254 21.8118C18.7212 22.0192 18.8746 22.1948 19.0674 22.3174C19.2602 22.4401 19.4842 22.5047 19.7127 22.5035C19.7347 22.5035 19.7568 22.5035 19.779 22.5017C20.0162 22.4906 20.2446 22.4083 20.4343 22.2655C20.624 22.1227 20.7662 21.926 20.8424 21.7011L20.8535 21.6678C20.988 21.2489 21.0315 20.8062 20.9812 20.3691C20.9308 19.9321 20.7877 19.5108 20.5614 19.1335C19.7699 17.8005 18.4868 17.9392 18.2503 17.9774C16.663 18.116 16.1528 19.5457 16.1991 20.7326C16.204 20.8573 16.2582 20.975 16.3499 21.0597C16.4415 21.1445 16.563 21.1894 16.6877 21.1845C16.8125 21.1796 16.9301 21.1254 17.0149 21.0338C17.0996 20.9422 17.1445 20.8206 17.1396 20.6959C17.1199 20.19 17.1984 19.0045 18.3471 18.9138C18.3669 18.9122 18.3866 18.9094 18.406 18.9054C18.5871 18.879 18.7719 18.8939 18.9464 18.949C18.2922 19.8367 18.1764 20.8405 18.6254 21.8118ZM19.6934 19.5214C19.7132 19.551 19.7328 19.5819 19.7522 19.6141C19.9102 19.8765 20.0103 20.1697 20.0458 20.4739C20.0813 20.7781 20.0514 21.0864 19.9581 21.3781L19.9513 21.3988C19.9356 21.4457 19.9059 21.4865 19.866 21.5157C19.8262 21.5449 19.7783 21.5611 19.7289 21.5619C19.6774 21.5665 19.6258 21.555 19.5812 21.529C19.5365 21.5029 19.5011 21.4637 19.4797 21.4166C19.1781 20.7647 19.2503 20.1285 19.6934 19.5212V19.5214Z" fill="white"/>
</g>
<defs>
<clipPath id="clip0_77_1703">
<rect width="40" height="40" fill="white"/>
</clipPath>
</defs>
</svg>
