<svg width="40" height="38" viewBox="0 0 40 38" fill="none" xmlns="http://www.w3.org/2000/svg">
<path d="M24.1157 24.882C32.6137 14.6 29.157 18.7794 39.389 6.40003C39.8397 5.85486 40.0553 5.15297 39.9884 4.44882C39.9215 3.74466 39.5776 3.09593 39.0323 2.64536L36.9763 0.944695C35.8412 0.00668088 34.1605 0.166356 33.2223 1.30136L17.9337 19.8034C17.881 19.8657 17.8409 19.9377 17.8157 20.0154L15.4157 27.1767C15.2844 27.5651 15.3408 27.9924 15.5683 28.3334H13.3337C12.9655 28.3334 12.667 28.6318 12.667 29C12.667 29.3682 12.9655 29.6667 13.3337 29.6667H26.667C27.0352 29.6667 27.3337 29.3682 27.3337 29C27.3337 28.6318 27.0352 28.3334 26.667 28.3334H18.0963L23.9157 25.0547C23.9896 25.0061 24.0568 24.9481 24.1157 24.882ZM19.9257 25.772L17.867 24.0667L18.7743 21.3574L22.417 24.3667L19.9257 25.772ZM17.411 25.4234L18.6817 26.4734L16.6817 27.6L17.411 25.4234ZM33.6903 11.2L29.579 7.80336L30.8523 6.26136L34.9637 9.66136L33.6903 11.2ZM34.2497 2.1507C34.4748 1.87792 34.7991 1.70578 35.1512 1.67214C35.5033 1.63851 35.8543 1.74615 36.127 1.97136L38.183 3.67003C38.4557 3.89526 38.6277 4.21961 38.6612 4.57169C38.6947 4.92377 38.587 5.27473 38.3617 5.54736L35.8137 8.63136L31.7023 5.2347L34.2497 2.1507ZM28.7297 8.8307L32.841 12.2307L23.499 23.5334L19.3877 20.1367L28.7297 8.8307Z" fill="white"/>
<path d="M1.33333 13H9.33333V32.3333C9.33664 35.2775 11.7225 37.6634 14.6667 37.6667H34.6667C37.2831 37.6791 39.5184 35.7833 39.9333 33.2C39.9938 32.8214 39.8851 32.4354 39.636 32.144C39.3808 31.841 39.0048 31.6663 38.6087 31.6667H30.6667V20.3333C30.6667 19.9651 30.3682 19.6667 30 19.6667C29.6318 19.6667 29.3333 19.9651 29.3333 20.3333V31.6667H19.9547C19.2845 31.6663 18.7191 32.1656 18.6367 32.8307C18.3781 34.9305 16.5291 36.4658 14.4175 36.334C12.306 36.2022 10.6622 34.449 10.6667 32.3333V9.00001C10.6658 7.46704 10.0034 6.00904 8.84933 5.00001H25.3333C26.0205 4.99643 26.6967 5.17271 27.2947 5.51134C27.5012 5.63043 27.7555 5.6303 27.9619 5.51101C28.1683 5.39172 28.2953 5.17139 28.2952 4.93301C28.2951 4.69464 28.1678 4.47443 27.9613 4.35534C27.1605 3.90026 26.2544 3.66283 25.3333 3.66667H5.33333C2.38919 3.66998 0.00330659 6.05586 0 9.00001V11.6667C0 12.0203 0.140476 12.3594 0.390524 12.6095C0.640573 12.8595 0.979711 13 1.33333 13ZM19.9547 33L38.614 32.9833C38.3038 34.9203 36.6283 36.3422 34.6667 36.3333H18.194C19.1705 35.4763 19.7972 34.2897 19.9547 33ZM5.33333 5.00001C7.54156 5.00221 9.33113 6.79178 9.33333 9.00001V11.6667H1.33333V9.00001C1.33554 6.79178 3.12511 5.00221 5.33333 5.00001Z" fill="white"/>
<path d="M13.3337 8.33333H25.3337C25.7018 8.33333 26.0003 8.03486 26.0003 7.66667C26.0003 7.29848 25.7018 7 25.3337 7H13.3337C12.9655 7 12.667 7.29848 12.667 7.66667C12.667 8.03486 12.9655 8.33333 13.3337 8.33333Z" fill="white"/>
<path d="M13.3337 11.6667H22.6137C22.9818 11.6667 23.2803 11.3682 23.2803 11C23.2803 10.6319 22.9818 10.3334 22.6137 10.3334H13.3337C12.9655 10.3334 12.667 10.6319 12.667 11C12.667 11.3682 12.9655 11.6667 13.3337 11.6667Z" fill="white"/>
<path d="M13.3337 15.0001H19.8603C20.2285 15.0001 20.527 14.7016 20.527 14.3334C20.527 13.9652 20.2285 13.6667 19.8603 13.6667H13.3337C12.9655 13.6667 12.667 13.9652 12.667 14.3334C12.667 14.7016 12.9655 15.0001 13.3337 15.0001Z" fill="white"/>
<path d="M13.3337 18.3333H17.107C17.4752 18.3333 17.7737 18.0349 17.7737 17.6667C17.7737 17.2985 17.4752 17 17.107 17H13.3337C12.9655 17 12.667 17.2985 12.667 17.6667C12.667 18.0349 12.9655 18.3333 13.3337 18.3333Z" fill="white"/>
</svg>
